<?xml version="1.0" encoding="UTF-8"?>
<!DOCTYPE svg PUBLIC "-//W3C//DTD SVG 1.1//EN" "http://www.w3.org/Graphics/SVG/1.1/DTD/svg11.dtd">
<!-- Creator: CorelDRAW -->
<svg xmlns="http://www.w3.org/2000/svg" xml:space="preserve" width="2230px" height="1020px" shape-rendering="geometricPrecision" text-rendering="geometricPrecision" image-rendering="optimizeQuality" fill-rule="evenodd" clip-rule="evenodd"
viewBox="0 0 2225.37 1018.05"
 xmlns:xlink="http://www.w3.org/1999/xlink">
 <g id="Ebene_x0020_1">
  <metadata id="CorelCorpID_0Corel-Layer"/>
  <path fill="#3C3834" fill-rule="nonzero" d="M67.0749 1012.33c8.31746,-12.4786 8.31746,-32.2325 8.31746,-48.8734l0 -33.7956c0,-25.998 -11.4365,-50.9551 -25.998,-81.6316 -15.0778,-30.6754 -34.3166,-59.7947 -49.3944,-73.3142l32.2384 0c13.5147,0 16.1186,3.11905 22.3579,14.0404 14.5567,23.3952 31.7127,65.513 38.994,92.0273 1.56188,5.72415 3.11905,11.4424 5.71826,11.4424 2.59921,0 5.37523,-6.7603 8.83849,-12.9996l25.4781 -45.2368c8.32218,-15.0778 16.6396,-33.2758 16.6396,-44.1912 0,-5.72415 -1.56188,-10.4015 -5.71826,-15.0825l46.7952 0 -42.119 66.0328c-25.9933,39.5197 -40.5547,58.2376 -40.5547,107.111l0 15.5976c0,16.6408 0,36.3948 8.32218,48.8734l-49.9154 0z"/>
  <path fill="#3C3834" fill-rule="nonzero" d="M277.651 813.191c-1.04204,-2.59803 -3.12023,-8.83731 -6.23928,-8.83731 -3.64125,0 -5.71944,7.28014 -6.23928,8.83731l-32.7547 80.0709 71.2324 0 -25.9992 -80.0709zm72.7931 199.138l-40.5547 -104.506 -83.711 0c-16.1186,32.7536 -32.7583,69.1531 -32.7583,90.4701 0,4.6774 0.519842,9.35951 1.04086,14.0357l-46.2741 0 7.79644 -10.3957c21.317,-27.04 98.2724,-186.664 98.2724,-217.34l0 -9.87935 44.1912 0c23.921,74.3562 47.836,154.946 84.7519,224.1l7.80116 13.5147 -40.5559 0z"/>
  <path fill="#3C3834" fill-rule="nonzero" d="M649.933 774.715c-8.83849,14.0404 -7.80234,34.3154 -7.80234,53.0344 0,44.7158 -1.55717,90.9911 3.12023,135.707 2.0829,16.6408 3.11905,33.7956 11.4424,48.8734l-54.5975 0c6.7603,-18.7178 6.7603,-46.2741 6.7603,-67.0702l0 -123.749c0,-3.63653 0,-8.31864 -2.59921,-8.31864 -2.59803,0 -3.64007,2.59921 -4.68093,5.71944l-83.711 197.06 -70.7102 -183.02c-4.16109,-10.4004 -6.7603,-19.7599 -9.88053,-19.7599 -3.64007,0 -3.64007,6.7603 -3.64007,12.4797l-0.52102 121.145c0,29.1194 0,53.0344 8.32218,65.513l-44.196 0 3.12023 -4.67622c14.0357,-19.7599 15.5976,-78.5126 15.5976,-119.068l0 -93.0693c0,-9.87935 -0.519842,-15.0778 -9.35833,-20.8007l46.2741 0c4.16109,0 9.87935,0.519842 11.4365,5.72297l55.1185 162.222c1.55717,5.71944 3.11905,11.9587 5.71826,11.9587 3.64007,0 4.67622,-3.64125 6.7603,-8.83849l64.471 -155.468c3.64007,-7.79644 6.23928,-15.5976 15.5988,-15.5976l37.9567 0z"/>
  <path fill="#3C3834" fill-rule="nonzero" d="M780.61 813.191c-0.693122,-2.59803 -3.29115,-8.83731 -6.41138,-8.83731 -3.64007,0 -5.71826,7.28014 -6.23928,8.83731l-32.7594 80.0709 71.4093 0 -25.9992 -80.0709zm73.1373 199.138l-41.071 -104.506 -83.7157 0c-16.1139,32.7536 -32.7536,69.1531 -32.7536,90.4701 0,4.6774 0.52102,9.35951 1.04086,14.0357l-46.2789 0 8.32218 -10.3957c20.796,-27.04 97.7467,-186.664 97.7467,-217.34l0.52102 -9.87935 43.6749 0c23.921,74.3562 47.8372,154.946 85.2729,224.1l7.28132 13.5147 -40.0408 0z"/>
  <path fill="#3C3834" fill-rule="nonzero" d="M902.625 1012.33c12.9996,-30.6754 12.9996,-75.9087 12.9996,-108.667l0 -79.5499c0,-18.2015 -0.52102,-38.4765 -11.9622,-49.3979l37.9567 0c6.7603,0 10.4004,0 14.5615,5.72297 7.79644,10.3957 31.7127,50.4305 43.1551,67.0702l74.3503 104.512c2.59921,3.63535 5.89154,8.83849 7.79762,8.83849 2.60392,0 2.60392,-3.64125 2.60392,-6.7603l0 -131.547c0,-25.4781 -3.64125,-37.9567 -8.8432,-47.836l38.4765 0c-8.83731,17.1607 -10.9155,36.3995 -10.9155,55.6372l0 148.703c0,12.4786 0.515126,23.3952 0.515126,34.8376l-26.5143 0 -136.224 -193.941c-1.56188,-2.59803 -2.60392,-4.16109 -3.98899,-4.16109 -1.73398,0 -2.25029,2.0829 -2.25029,5.20313l0 96.1884c0,29.6345 -0.519842,67.0713 10.9167,95.1475l-42.6341 0z"/>
  <path fill="#3C3834" fill-rule="nonzero" d="M1242.15 813.191c-1.04204,-2.59803 -3.12023,-8.83731 -6.23928,-8.83731 -3.64125,0 -5.71944,7.28014 -6.7603,8.83731l-32.2384 80.0709 71.2372 0 -25.9992 -80.0709zm72.7931 199.138l-40.3838 -104.506 -83.8866 0c-16.1139,32.7536 -32.7536,69.1531 -32.7536,90.4701 0,4.6774 0.519842,9.35951 1.04086,14.0357l-46.7952 0 8.31746 -10.3957c21.317,-27.04 98.2677,-186.664 98.2677,-217.34l0 -9.87935 44.196 0c23.921,74.3562 47.836,154.946 84.7519,224.1l7.80116 13.5147 -40.5559 0z"/>
  <path fill="#D49E0D" fill-rule="nonzero" d="M1564 813.191c-25.4781,-20.796 -46.7952,-28.0762 -75.3935,-28.0762 -57.7166,0 -91.5122,48.8734 -91.5122,102.949 0,69.1531 33.4526,113.87 105.033,113.87 9.35951,0 18.1968,-1.04086 27.5563,-2.60392 3.64007,-12.4786 3.64007,-25.4722 3.64007,-38.4718l0 -18.198c0,-16.6396 0,-35.8785 -8.32218,-48.8781l49.9142 0c-8.31746,12.9996 -8.31746,32.2384 -8.31746,48.8781l0 37.4368c0,9.35833 1.55835,22.8742 2.59921,32.2325 -22.3579,3.64125 -53.0344,5.71944 -79.0336,5.71944 -78.5067,0 -131.541,-34.3166 -131.541,-118.028 0,-90.4701 65.513,-131.546 148.702,-131.546 18.719,0 37.4368,3.11905 56.6757,4.16109l0 40.5547z"/>
  <path fill="#D49E0D" fill-rule="nonzero" d="M1716.51 785.115c-53.7264,0 -77.1216,49.3932 -77.1216,102.949 0,48.8734 16.6349,113.87 77.1216,113.87 53.3834,0 76.2576,-49.3979 76.2576,-102.949 0,-48.8781 -16.6349,-113.87 -76.2576,-113.87zm-3.29115 232.934c-77.9916,0 -112.308,-53.5508 -112.308,-119.585 0,-70.715 40.5559,-129.989 118.026,-129.989 78.5126,0 112.829,54.0753 112.829,120.109 0,70.7102 -41.0769,129.464 -118.547,129.464z"/>
  <path fill="#D49E0D" fill-rule="nonzero" d="M1872.84 823.593c0,-16.6408 0,-36.3995 -7.80234,-48.8781l49.9154 0c-8.31746,12.4786 -8.31746,32.2372 -8.31746,48.8781l0 173.659 28.0762 0c20.796,0 40.0349,-2.59803 58.7539,-20.796l-7.28132 34.8376c-7.2766,0.516305 -15.0778,1.03615 -22.7021,1.03615l-103.121 0c11.4365,-14.5567 12.4786,-67.0702 12.4786,-84.7519l0 -103.985z"/>
  <path fill="#D49E0D" fill-rule="nonzero" d="M2049.1 970.737c0,26.5143 7.80234,28.0773 47.8372,28.0773 66.0328,0 89.9491,-46.7952 89.9491,-108.152 0,-63.9511 -35.3575,-105.027 -101.908,-105.027 -13.5194,0 -27.04,1.55717 -35.3575,3.11905 0,5.71826 -0.52102,11.4377 -0.52102,17.677l0 164.305zm-33.2746 -147.145c0,-16.6408 0,-36.3995 -8.31746,-48.8781 37.4357,0 75.3876,-3.63653 113.344,-3.63653 61.8729,0 104.512,46.7952 104.512,113.345 0,83.1947 -57.1955,129.469 -127.907,129.469 -37.9567,0 -63.9547,-1.56306 -89.9491,-1.56306 8.31746,-12.4786 8.31746,-32.2325 8.31746,-48.8734l0 -139.863z"/>
  <polygon fill="#D49E0D" fill-rule="nonzero" points="1112.68,576.098 809.556,356.163 925.499,0 1299.86,0 1415.81,356.163 "/>
  <path fill="#3C3834" fill-rule="nonzero" d="M1112.68 575.577c6.23928,-78.5126 32.7583,-345.242 187.179,-575.577 -83.1888,83.7098 -127.385,140.905 -186.658,225.137l-1.03733 0c-59.2737,-84.232 -103.47,-141.428 -186.664,-225.137 154.426,230.335 180.941,497.064 187.181,575.577l0 0.52102c0,0 0,0 0,0 0,0 0,0 0,0l0 -0.52102z"/>
  <path fill="#D49E0D" fill-rule="nonzero" d="M925.499 0c83.1947,83.7098 127.391,140.905 186.664,225.137l1.03733 0c59.2737,-84.232 103.47,-141.428 186.658,-225.137 -154.421,230.335 -180.94,497.064 -187.179,575.577l0 0c-6.23928,-78.5126 -32.7547,-345.242 -187.181,-575.577zm357.725 21.317l-10.9214 10.9167c-64.992,68.1169 -105.027,120.63 -157.019,194.982l-2.0829 1.04086 -3.12023 -1.04086c-51.9924,-74.3515 -92.0273,-126.865 -157.019,-194.982l-10.4015 -10.9167 12.9996 20.796c113.865,192.383 146.625,399.838 156.504,498.111l0.516305 3.63535 0.52102 -6.23928c10.4004,-99.3086 43.6749,-304.686 157.025,-495.507l12.9984 -20.796z"/>
 </g>
</svg>
